<?xml version="1.0" encoding="UTF-8"?>
<svg version="1.1" viewBox="0 0 2048 2048" width="512" height="512" xmlns="http://www.w3.org/2000/svg">
<path transform="translate(994,320)" d="m0 0h58l34 2 43 5 39 7 38 9 34 10 29 10 30 12 26 12 19 9 22 12 16 9 21 13 24 16 28 21 17 14 11 9 14 13 8 7 8 8 8 7 4 4v2h2l7 8 10 10 7 8 12 14 10 12 9 11 14 19 14 20 12 19 19 32 18 35 13 28 13 33 12 36 7 24 8 32 7 37 4 27 3 28 2 40v41l-2 40-5 42-7 39-7 31-9 32-12 36-13 33-15 33-11 22-13 23-15 25-8 12-11 16-14 19-11 14-13 16-10 11-7 8-9 10-36 36-8 7-14 12-17 14-17 13-11 8-16 11-15 10-18 11-17 10-32 17-28 13-32 13-28 10-29 9-30 8-38 8-33 5-37 4-36 2h-42l-49-3-32-4-24-4-23-5-30-7-37-11-29-10-30-12-24-11-21-10-9 2-30 7-67 17-201 50-7 1h-13l-16-4-11-6-10-8-9-11-8-16-3-19 3-20 32-128 19-75 15-60 5-19 2-11 2-3-1-5-15-31-13-31-13-36-11-37-8-32-7-36-4-27-3-26-2-32v-63l3-43 4-30 4-24 7-34 8-30 8-26 8-23 11-28 12-27 9-19 10-19 13-23 13-21 12-18 12-17 9-12 8-10 18-22 12-13 7-8 12-13 20-20 8-7 13-12 14-12 25-20 17-12 14-10 17-11 28-17 26-14 22-11 24-11 28-11 19-7 39-12 32-8 18-4 22-4 26-4 27-3zm0 128-37 3-34 5-34 7-36 10-32 11-29 12-29 14-21 11-22 13-21 14-14 10-16 12-17 14-20 18-15 14-9 9-7 8-14 15-9 11-13 16-12 17-18 27-9 15-14 25-15 31-13 32-12 35-10 38-7 35-4 28-3 40v51l3 38 5 36 6 29 8 31 8 25 10 28 13 30 8 17 10 19 6 12 4 15v14l-6 26-32 128-18 73-1 6 225-56 7-1h17l14 4 45 23 28 12 24 9 30 10 30 8 35 7 37 5 24 2 22 1h30l34-2 27-3 26-4 33-7 29-8 36-12 27-11 26-12 25-13 22-13 19-12 18-13 16-12 14-11 11-10 8-7 10-9 27-27 7-8 9-10 11-14 12-15 12-17 8-12 13-21 13-23 8-16 11-23 11-27 7-19 10-33 8-33 7-41 3-27 2-34v-35l-2-34-5-40-7-36-7-28-9-29-10-27-12-28-10-21-12-22-13-22-16-24-10-14-10-13-9-11-11-13-11-12-14-15-12-12-8-7-12-11-11-9-15-12-18-13-27-18-15-9-25-14-31-15-19-8-24-9-27-9-34-9-35-7-29-4-40-3z" fill="#AAADAE"/>
<path transform="translate(708,804)" d="m0 0h121l2 2 16 88 17 92 9 50 14 75 3 9 4-23 15-68 27-123 19-87 4-15h105l6 25 40 180 17 76 6 29 1 6h1l14-74 24-132 18-98 3-12h122l-1 8-12 57-26 123-28 132-20 94-19 90-2 7-2 1h-126l-3-9-12-50-32-136-18-77-4-15-1-1-5 25-20 87-14 61-20 87-6 26-3 2h-125l-2-3-22-103-16-75-27-127-13-61-20-94-9-42z" fill="#AAADAE"/>
</svg>
